<svg width="40" height="40" viewBox="0 0 40 40" fill="none" xmlns="http://www.w3.org/2000/svg">
<path fill-rule="evenodd" clip-rule="evenodd" d="M6.5 9.94286C6.5 9.42213 6.92169 9 7.44186 9H32.5581C33.0783 9 33.5 9.42213 33.5 9.94286V28.8C33.5 30.015 32.5161 31 31.3023 31H8.69767C7.48393 31 6.5 30.015 6.5 28.8V9.94286ZM8.38372 10.8857V28.8C8.38372 28.9736 8.52428 29.1143 8.69767 29.1143H31.3023C31.4757 29.1143 31.6163 28.9736 31.6163 28.8V10.8857H8.38372Z" fill="#1F1F1F"/>
<path fill-rule="evenodd" clip-rule="evenodd" d="M6.7923 9.25862C7.16898 8.90154 7.76516 8.91602 8.1239 9.29095L20 21.7031L31.8761 9.29095C32.2348 8.91602 32.831 8.90154 33.2077 9.25862C33.5844 9.6157 33.5989 10.2091 33.2402 10.5841L20.682 23.7091C20.5043 23.8948 20.2578 24 20 24C19.7422 24 19.4957 23.8948 19.318 23.7091L6.75983 10.5841C6.40108 10.2091 6.41562 9.6157 6.7923 9.25862Z" fill="#1F1F1F"/>
</svg>
