<svg width="40" height="40" viewBox="0 0 40 40" fill="none" xmlns="http://www.w3.org/2000/svg">
<path d="M16.3586 19.9999C16.3586 17.9894 17.989 16.3591 20.0007 16.3591C22.0125 16.3591 23.6437 17.9894 23.6437 19.9999C23.6437 22.0105 22.0125 23.6408 20.0007 23.6408C17.989 23.6408 16.3586 22.0105 16.3586 19.9999ZM14.3893 19.9999C14.3893 23.0973 16.9015 25.608 20.0007 25.608C23.1 25.608 25.6122 23.0973 25.6122 19.9999C25.6122 16.9026 23.1 14.3918 20.0007 14.3918C16.9015 14.3918 14.3893 16.9026 14.3893 19.9999ZM24.523 14.1695C24.5229 14.4287 24.5997 14.6821 24.7437 14.8977C24.8877 15.1133 25.0924 15.2813 25.332 15.3806C25.5716 15.4799 25.8353 15.506 26.0897 15.4555C26.3441 15.405 26.5778 15.2803 26.7613 15.0971C26.9447 14.9139 27.0697 14.6804 27.1204 14.4262C27.1711 14.172 27.1453 13.9085 27.0461 13.6689C26.9469 13.4294 26.7789 13.2247 26.5633 13.0806C26.3477 12.9365 26.0942 12.8595 25.8349 12.8594H25.8343C25.4867 12.8596 25.1533 12.9976 24.9074 13.2433C24.6615 13.4889 24.5233 13.822 24.523 14.1695ZM15.5858 28.8898C14.5203 28.8414 13.9412 28.664 13.5564 28.5141C13.0462 28.3156 12.6821 28.0792 12.2994 27.6972C11.9166 27.3152 11.6797 26.9517 11.4819 26.4418C11.3319 26.0574 11.1544 25.4785 11.106 24.4137C11.053 23.2624 11.0425 22.9166 11.0425 20C11.0425 17.0834 11.0539 16.7386 11.106 15.5864C11.1545 14.5216 11.3333 13.9438 11.4819 13.5582C11.6806 13.0483 11.9171 12.6845 12.2994 12.302C12.6816 11.9195 13.0453 11.6827 13.5564 11.485C13.941 11.3351 14.5203 11.1577 15.5858 11.1093C16.7377 11.0564 17.0837 11.0458 20.0007 11.0458C22.9178 11.0458 23.2641 11.0573 24.417 11.1093C25.4825 11.1578 26.0606 11.3365 26.4464 11.485C26.9566 11.6827 27.3207 11.92 27.7034 12.302C28.0862 12.684 28.3222 13.0483 28.5208 13.5582C28.6709 13.9427 28.8483 14.5216 28.8968 15.5864C28.9497 16.7386 28.9603 17.0834 28.9603 20C28.9603 22.9166 28.9497 23.2615 28.8968 24.4137C28.8482 25.4785 28.6699 26.0572 28.5208 26.4418C28.3222 26.9517 28.0856 27.3156 27.7034 27.6972C27.3212 28.0789 26.9566 28.3156 26.4464 28.5141C26.0617 28.6641 25.4825 28.8414 24.417 28.8898C23.2651 28.9428 22.9191 28.9534 20.0007 28.9534C17.0824 28.9534 16.7373 28.9428 15.5858 28.8898ZM15.4953 9.14449C14.3319 9.19744 13.537 9.3818 12.8427 9.65178C12.1237 9.93059 11.5151 10.3046 10.9069 10.9115C10.2986 11.5184 9.92534 12.1277 9.64636 12.8462C9.37622 13.5405 9.19175 14.3345 9.13877 15.4972C9.08492 16.6617 9.07259 17.034 9.07259 19.9999C9.07259 22.9659 9.08492 23.3382 9.13877 24.5027C9.19175 25.6654 9.37622 26.4594 9.64636 27.1537C9.92534 27.8718 10.2987 28.4817 10.9069 29.0884C11.515 29.695 12.1237 30.0685 12.8427 30.3481C13.5383 30.6181 14.3319 30.8024 15.4953 30.8554C16.6611 30.9083 17.033 30.9215 20.0007 30.9215C22.9685 30.9215 23.341 30.9092 24.5062 30.8554C25.6696 30.8024 26.4641 30.6181 27.1587 30.3481C27.8773 30.0685 28.4864 29.6952 29.0946 29.0884C29.7028 28.4815 30.0753 27.8718 30.3551 27.1537C30.6252 26.4594 30.8106 25.6654 30.8627 24.5027C30.9157 23.3373 30.928 22.9659 30.928 19.9999C30.928 17.034 30.9157 16.6617 30.8627 15.4972C30.8097 14.3344 30.6252 13.54 30.3551 12.8462C30.0753 12.1281 29.7019 11.5194 29.0946 10.9115C28.4873 10.3037 27.8773 9.93059 27.1596 9.65178C26.4641 9.3818 25.6695 9.19657 24.5071 9.14449C23.3419 9.09155 22.9693 9.07835 20.0016 9.07835C17.0339 9.07835 16.6611 9.09067 15.4953 9.14449Z" fill="url(#paint0_radial_65_847)"/>
<path d="M16.3586 19.9999C16.3586 17.9894 17.989 16.3591 20.0007 16.3591C22.0125 16.3591 23.6437 17.9894 23.6437 19.9999C23.6437 22.0105 22.0125 23.6408 20.0007 23.6408C17.989 23.6408 16.3586 22.0105 16.3586 19.9999ZM14.3893 19.9999C14.3893 23.0973 16.9015 25.608 20.0007 25.608C23.1 25.608 25.6122 23.0973 25.6122 19.9999C25.6122 16.9026 23.1 14.3918 20.0007 14.3918C16.9015 14.3918 14.3893 16.9026 14.3893 19.9999ZM24.523 14.1695C24.5229 14.4287 24.5997 14.6821 24.7437 14.8977C24.8877 15.1133 25.0924 15.2813 25.332 15.3806C25.5716 15.4799 25.8353 15.506 26.0897 15.4555C26.3441 15.405 26.5778 15.2803 26.7613 15.0971C26.9447 14.9139 27.0697 14.6804 27.1204 14.4262C27.1711 14.172 27.1453 13.9085 27.0461 13.6689C26.9469 13.4294 26.7789 13.2247 26.5633 13.0806C26.3477 12.9365 26.0942 12.8595 25.8349 12.8594H25.8343C25.4867 12.8596 25.1533 12.9976 24.9074 13.2433C24.6615 13.4889 24.5233 13.822 24.523 14.1695ZM15.5858 28.8898C14.5203 28.8414 13.9412 28.664 13.5564 28.5141C13.0462 28.3156 12.6821 28.0792 12.2994 27.6972C11.9166 27.3152 11.6797 26.9517 11.4819 26.4418C11.3319 26.0574 11.1544 25.4785 11.106 24.4137C11.053 23.2624 11.0425 22.9166 11.0425 20C11.0425 17.0834 11.0539 16.7386 11.106 15.5864C11.1545 14.5216 11.3333 13.9438 11.4819 13.5582C11.6806 13.0483 11.9171 12.6845 12.2994 12.302C12.6816 11.9195 13.0453 11.6827 13.5564 11.485C13.941 11.3351 14.5203 11.1577 15.5858 11.1093C16.7377 11.0564 17.0837 11.0458 20.0007 11.0458C22.9178 11.0458 23.2641 11.0573 24.417 11.1093C25.4825 11.1578 26.0606 11.3365 26.4464 11.485C26.9566 11.6827 27.3207 11.92 27.7034 12.302C28.0862 12.684 28.3222 13.0483 28.5208 13.5582C28.6709 13.9427 28.8483 14.5216 28.8968 15.5864C28.9497 16.7386 28.9603 17.0834 28.9603 20C28.9603 22.9166 28.9497 23.2615 28.8968 24.4137C28.8482 25.4785 28.6699 26.0572 28.5208 26.4418C28.3222 26.9517 28.0856 27.3156 27.7034 27.6972C27.3212 28.0789 26.9566 28.3156 26.4464 28.5141C26.0617 28.6641 25.4825 28.8414 24.417 28.8898C23.2651 28.9428 22.9191 28.9534 20.0007 28.9534C17.0824 28.9534 16.7373 28.9428 15.5858 28.8898ZM15.4953 9.14449C14.3319 9.19744 13.537 9.3818 12.8427 9.65178C12.1237 9.93059 11.5151 10.3046 10.9069 10.9115C10.2986 11.5184 9.92534 12.1277 9.64636 12.8462C9.37622 13.5405 9.19175 14.3345 9.13877 15.4972C9.08492 16.6617 9.07259 17.034 9.07259 19.9999C9.07259 22.9659 9.08492 23.3382 9.13877 24.5027C9.19175 25.6654 9.37622 26.4594 9.64636 27.1537C9.92534 27.8718 10.2987 28.4817 10.9069 29.0884C11.515 29.695 12.1237 30.0685 12.8427 30.3481C13.5383 30.6181 14.3319 30.8024 15.4953 30.8554C16.6611 30.9083 17.033 30.9215 20.0007 30.9215C22.9685 30.9215 23.341 30.9092 24.5062 30.8554C25.6696 30.8024 26.4641 30.6181 27.1587 30.3481C27.8773 30.0685 28.4864 29.6952 29.0946 29.0884C29.7028 28.4815 30.0753 27.8718 30.3551 27.1537C30.6252 26.4594 30.8106 25.6654 30.8627 24.5027C30.9157 23.3373 30.928 22.9659 30.928 19.9999C30.928 17.034 30.9157 16.6617 30.8627 15.4972C30.8097 14.3344 30.6252 13.54 30.3551 12.8462C30.0753 12.1281 29.7019 11.5194 29.0946 10.9115C28.4873 10.3037 27.8773 9.93059 27.1596 9.65178C26.4641 9.3818 25.6695 9.19657 24.5071 9.14449C23.3419 9.09155 22.9693 9.07835 20.0016 9.07835C17.0339 9.07835 16.6611 9.09067 15.4953 9.14449Z" fill="url(#paint1_radial_65_847)"/>
<defs>
<radialGradient id="paint0_radial_65_847" cx="0" cy="0" r="1" gradientUnits="userSpaceOnUse" gradientTransform="translate(11.9763 31.0247) scale(28.5315 28.5144)">
<stop offset="0.09" stop-color="#FA8F21"/>
<stop offset="0.78" stop-color="#D82D7E"/>
</radialGradient>
<radialGradient id="paint1_radial_65_847" cx="0" cy="0" r="1" gradientUnits="userSpaceOnUse" gradientTransform="translate(22.3275 32.0033) scale(22.4868 22.4733)">
<stop offset="0.64" stop-color="#8C3AAA" stop-opacity="0"/>
<stop offset="1" stop-color="#8C3AAA"/>
</radialGradient>
</defs>
</svg>
