<svg width="40" height="40" viewBox="0 0 40 40" fill="none" xmlns="http://www.w3.org/2000/svg">
<path d="M20.1023 32.341C26.1377 32.341 31.0304 27.4483 31.0304 21.4129C31.0304 15.3774 26.1377 10.4847 20.1023 10.4847C14.0668 10.4847 9.17413 15.3774 9.17413 21.4129C9.17413 27.4483 14.0668 32.341 20.1023 32.341Z" fill="#34AADF"/>
<path d="M13.8588 21.1735C13.8588 21.1735 19.2721 18.8705 21.1495 18.0596C21.8692 17.7353 24.3098 16.6973 24.3098 16.6973C24.3098 16.6973 25.4363 16.2432 25.3424 17.346C25.3111 17.8001 25.0608 19.3895 24.8105 21.1087C24.435 23.5414 24.0282 26.2012 24.0282 26.2012C24.0282 26.2012 23.9656 26.9472 23.4337 27.077C22.9018 27.2067 22.0256 26.6229 21.8692 26.4931C21.744 26.3958 19.5224 24.9362 18.7089 24.2226C18.4898 24.028 18.2395 23.6387 18.7401 23.1846C19.8666 22.1142 21.2121 20.7843 22.0256 19.941C22.4011 19.5517 22.7766 18.6435 21.2121 19.7463C18.9905 21.3357 16.8001 22.8278 16.8001 22.8278C16.8001 22.8278 16.2995 23.1521 15.3608 22.8602C14.422 22.5683 13.3269 22.1791 13.3269 22.1791C13.3269 22.1791 12.5759 21.6925 13.8588 21.1735Z" fill="white"/>
</svg>
