<svg width="40" height="40" viewBox="0 0 40 40" fill="none" xmlns="http://www.w3.org/2000/svg">
<path d="M10.0001 29.2001L11.435 23.8694C10.2778 21.7928 9.9101 19.3696 10.3995 17.0444C10.8889 14.7192 12.2025 12.6481 14.0993 11.211C15.996 9.77388 18.3488 9.06727 20.7257 9.22079C23.1026 9.37432 25.3444 10.3777 27.0395 12.0468C28.7346 13.7158 29.7695 15.9387 29.9541 18.3074C30.1388 20.6761 29.4609 23.0318 28.0448 24.9422C26.6287 26.8526 24.5694 28.1895 22.2449 28.7077C19.9203 29.2259 17.4863 28.8906 15.3896 27.7632L10.0001 29.2001ZM15.6495 25.7684L15.9828 25.9656C17.5015 26.8635 19.2753 27.2351 21.0278 27.0224C22.7803 26.8097 24.413 26.0248 25.6716 24.7899C26.9301 23.555 27.7438 21.9396 27.9858 20.1953C28.2278 18.4509 27.8845 16.6758 27.0094 15.1464C26.1343 13.617 24.7766 12.4194 23.1479 11.74C21.5191 11.0607 19.7108 10.9378 18.0048 11.3906C16.2987 11.8434 14.7907 12.8464 13.7158 14.2433C12.6409 15.6402 12.0595 17.3525 12.0621 19.1134C12.0607 20.5735 12.4655 22.0053 13.2315 23.2495L13.4406 23.5933L12.6384 26.5686L15.6495 25.7684Z" fill="#00D95F"/>
<path fill-rule="evenodd" clip-rule="evenodd" d="M23.7393 20.4822C23.5439 20.325 23.3151 20.2144 23.0704 20.1587C22.8256 20.103 22.5714 20.1038 22.327 20.161C21.9598 20.3131 21.7225 20.8879 21.4852 21.1753C21.4352 21.2442 21.3617 21.2925 21.2784 21.3112C21.1952 21.3299 21.1081 21.3176 21.0333 21.2767C19.6889 20.7515 18.562 19.7884 17.8357 18.5437C17.7737 18.4661 17.7444 18.3675 17.7539 18.2687C17.7634 18.1699 17.8109 18.0786 17.8865 18.014C18.1512 17.7527 18.3455 17.4291 18.4515 17.073C18.475 16.6802 18.3848 16.289 18.1916 15.946C18.0422 15.4651 17.758 15.0368 17.3724 14.7119C17.1736 14.6227 16.9531 14.5928 16.7376 14.6258C16.522 14.6588 16.3207 14.7533 16.1578 14.8979C15.875 15.1412 15.6506 15.4447 15.501 15.7861C15.3514 16.1274 15.2805 16.4978 15.2934 16.8701C15.2943 17.0792 15.3209 17.2874 15.3725 17.49C15.5037 17.9768 15.7055 18.4419 15.9714 18.8706C16.1632 19.1989 16.3725 19.5168 16.5985 19.8229C17.3326 20.8282 18.2555 21.6817 19.3158 22.3361C19.8479 22.6687 20.4166 22.9391 21.0107 23.1419C21.6278 23.421 22.3091 23.5281 22.9823 23.4519C23.3659 23.394 23.7293 23.2429 24.0406 23.012C24.3519 22.7811 24.6015 22.4774 24.7675 22.1276C24.8651 21.9164 24.8947 21.6802 24.8523 21.4514C24.7506 20.9837 24.1235 20.7076 23.7393 20.4822Z" fill="#00D95F"/>
</svg>
